<svg width="82" height="83" viewBox="0 0 82 83" fill="none" xmlns="http://www.w3.org/2000/svg">
<path d="M81.375 41.5C81.375 63.9711 63.1586 82.1875 40.6875 82.1875C18.2164 82.1875 0 63.9711 0 41.5C0 19.0289 18.2164 0.8125 40.6875 0.8125C63.1586 0.8125 81.375 19.0289 81.375 41.5ZM35.9812 63.0437L66.1687 32.8562C67.1938 31.8311 67.1938 30.169 66.1687 29.144L62.4565 25.4317C61.4314 24.4065 59.7693 24.4065 58.7441 25.4317L34.125 50.0506L22.6309 38.5566C21.6059 37.5315 19.9438 37.5315 18.9185 38.5566L15.2063 42.2688C14.1812 43.2939 14.1812 44.956 15.2063 45.981L32.2688 63.0435C33.294 64.0688 34.956 64.0688 35.9812 63.0437Z" fill="#F8A64C"/>
</svg>
